<svg width="19" height="16" viewBox="0 0 19 16" fill="none" xmlns="http://www.w3.org/2000/svg">
<path d="M0 0V16H19V0H0ZM1.35714 1.45457H17.6429V10.6079L12.8929 5.51704L7.46429 11.3352L4.75 8.42618L1.35714 12.0625V1.45457ZM7.46429 2.90905C6.34803 2.90905 5.42857 3.89454 5.42857 5.09091C5.42857 6.2873 6.34803 7.27267 7.46429 7.27267C8.58054 7.27267 9.5 6.2873 9.5 5.09091C9.5 3.89454 8.58054 2.90905 7.46429 2.90905ZM7.46429 4.36362C7.84709 4.36362 8.14286 4.68063 8.14286 5.09091C8.14286 5.50118 7.84709 5.81819 7.46429 5.81819C7.08148 5.81819 6.78571 5.50118 6.78571 5.09091C6.78571 4.68063 7.08148 4.36362 7.46429 4.36362ZM12.8929 7.57391L17.6429 12.6648V14.5454H1.35714V14.1193L4.75 10.483L7.46429 13.392L12.8929 7.57391Z" fill="#00FF85"/>
</svg>
