<svg width="18" height="18" viewBox="0 0 18 18" fill="none" xmlns="http://www.w3.org/2000/svg">
<path d="M9.64258 6.42847L11.5711 8.35707L9.64251 10.2856L7.71398 8.357L9.64258 6.42847Z" fill="#00FF85"/>
<path d="M7.07153 9.00006L9.00012 10.9287L1.92857 18L-1.73039e-05 16.0714L7.07153 9.00006Z" fill="#00FF85"/>
<path d="M8.99976 0H10.2855V2.57143H8.99976V0Z" fill="#00FF85"/>
<path d="M14.1881 4.72089L13.279 3.81173L15.0973 1.99351L16.0064 2.90267L14.1881 4.72089Z" fill="#00FF85"/>
<path d="M3.27856 2.90222L4.18769 1.99307L6.006 3.81131L5.09687 4.72047L3.27856 2.90222Z" fill="#00FF85"/>
<path d="M13.2789 12.9024L14.1881 11.9932L16.0064 13.8115L15.0972 14.7207L13.2789 12.9024Z" fill="#00FF85"/>
<path d="M15.4283 7.71436H17.9998V9.00007H15.4283V7.71436Z" fill="#00FF85"/>
</svg>
